<svg xmlns="http://www.w3.org/2000/svg" viewBox="0 0 1024 1024" width="1024" height="1024"><defs><linearGradient id="bgd" x1="0" y1="0" x2="1" y2="1"><stop offset="0" stop-color="#12203a"></stop><stop offset="1" stop-color="#070b14"></stop></linearGradient><radialGradient id="gld" cx="0.5" cy="0.5" r="0.5"><stop offset="0" stop-color="#3d8bff" stop-opacity="0.3"></stop><stop offset="1" stop-color="#3d8bff" stop-opacity="0"></stop></radialGradient><linearGradient id="std" gradientUnits="userSpaceOnUse" x1="0" y1="800" x2="0" y2="420"><stop offset="0" stop-color="#3d8bff"></stop><stop offset="1" stop-color="#b8f6ff"></stop></linearGradient></defs><rect width="1024" height="1024" rx="230" fill="url(#bgd)"></rect><circle cx="470" cy="600" r="360" fill="url(#gld)"></circle><g transform="translate(30,-30)"><circle cx="455" cy="620" r="170" fill="none" stroke="url(#std)" stroke-width="112"></circle><path d="M673 790 V330" stroke="url(#std)" stroke-width="112" stroke-linecap="round" fill="none"></path><circle cx="673.0" cy="300.0" r="42.0" fill="#b8f6ff" opacity="1.00"></circle><circle cx="676.8" cy="290.5" r="38.8" fill="#b8f2ff" opacity="0.98"></circle><circle cx="679.3" cy="280.9" r="36.8" fill="#b8efff" opacity="0.96"></circle><circle cx="685.0" cy="271.4" r="35.1" fill="#b8ebff" opacity="0.95"></circle><circle cx="689.4" cy="261.8" r="33.5" fill="#b8e7ff" opacity="0.93"></circle><circle cx="683.3" cy="252.3" r="32.1" fill="#b8e4ff" opacity="0.91"></circle><circle cx="684.2" cy="242.7" r="30.7" fill="#b8e0ff" opacity="0.89"></circle><circle cx="707.0" cy="233.2" r="29.4" fill="#b8ddff" opacity="0.87"></circle><circle cx="695.1" cy="223.6" r="28.2" fill="#b8d9ff" opacity="0.85"></circle><circle cx="697.0" cy="214.1" r="27.0" fill="#b8d5ff" opacity="0.84"></circle><circle cx="727.4" cy="204.5" r="25.9" fill="#b8d2ff" opacity="0.82"></circle><circle cx="711.8" cy="195.0" r="24.8" fill="#b8ceff" opacity="0.80"></circle><circle cx="731.3" cy="185.5" r="23.7" fill="#b9caff" opacity="0.78"></circle><circle cx="719.2" cy="175.9" r="22.6" fill="#b9c7ff" opacity="0.76"></circle><circle cx="731.0" cy="166.4" r="21.6" fill="#b9c3ff" opacity="0.75"></circle><circle cx="708.5" cy="156.8" r="20.6" fill="#b9bfff" opacity="0.73"></circle><circle cx="739.0" cy="147.3" r="19.6" fill="#b9bcff" opacity="0.71"></circle><circle cx="757.6" cy="137.7" r="18.6" fill="#b9b8ff" opacity="0.69"></circle><circle cx="740.0" cy="128.2" r="17.7" fill="#b9b5ff" opacity="0.67"></circle><circle cx="758.8" cy="118.6" r="16.7" fill="#b9b1ff" opacity="0.65"></circle><circle cx="758.2" cy="109.1" r="15.8" fill="#b9adff" opacity="0.64"></circle><circle cx="716.1" cy="99.5" r="14.9" fill="#b9aaff" opacity="0.62"></circle></g></svg>